<?xml version="1.0" encoding="UTF-8"?>
<svg id="Layer_1" xmlns="http://www.w3.org/2000/svg" version="1.1" viewBox="0 0 520 470">
  <!-- Generator: Adobe Illustrator 29.8.4, SVG Export Plug-In . SVG Version: 2.1.1 Build 6)  -->
  <defs>
    <style>
      .st0 {
        fill: #006496;
      }

      .st1 {
        fill: #ffaa64;
      }
    </style>
  </defs>
  <g id="Capa_2">
    <g id="Capa_1-2">
      <path class="st1" d="M502.2,55.3c5.9-6.4,17.6-21.8,8.3-35.8-6.3-9.5-15.6-12.8-24.3-13.9h0c-7-.9-14-.7-20.9.5h0c-26.1,4.9-47.3,13.8-74.2,26-38.8,18.6-76.5,39.4-113,62.4-38.2,24.1-77,48.9-108,82.2-43.6,12.2-84.7,22.5-127.9,28.3,10.8-12.1-9.2-25.2-15.9-10.5l-4.2,12.5c-2.1,5.5.7,11.5,6.3,13.6.7.3,1.5.5,2.3.6.7,0,1.4.2,2.1.2,39.3-3.5,78-12.1,117.6-21.7-22.2,27.2-37.6,69.5,10.5,75.4,34.1,2.7,65.5-6.6,97.7-14.7,44-11.7,83.8-21.4,123.4-28.8,16.5-3,43.6-6.7,57.5-6.1,12.9.6,29.6,2.9,35.4,12.3,9.1,14.6-.7,34.7-11.4,48.2-32.6,38.8-83.7,73.6-129.3,96.1-35.9,17-79.2,30.7-118.8,39.6-20.2,4.8-40.7,7.9-61.4,9.6-15.1.8-30.7,1.6-43.1-4.1-5.9-3.4-2.3-9.9-.7-12.3l.7-1h0c50.1-4.9,108.2-13.5,150.3-25.8,24.9-7.5,40-13.1,59.8-26.1,12.5-7.5,34-28.3,17.5-43.1-23.2-15.9-82.6,2.1-110.5,9.8-27.8,8.2-54.8,18.8-80.8,31.7-19.5,10.1-38.1,20.8-52.2,36.5-11.8.5-64.7,7.3-79.1,29.3h0c-2.4,3-3.7,6.8-3.7,10.5h0c0,14.2,18.8,21.9,28.8,11.8h0l7.7-8.1c10.2-9.2,22.2-16.2,35.4-20.4-.9,72.7,181.6,12.5,218.7-3.2,42.3-16.6,76.8-37.4,112.8-64.5,28.6-22.2,55.5-44.9,72.8-74h0c14.4-24.5,11.6-51.7-12.3-68.3h0c-34.6-22.1-102.2-2.2-140.9,6.6-47.1,11.8-80.7,24.6-122.7,35.1-14.7,3.4-61.9,14-66.4-3.9-.5-12.2,6.5-21.7,13.6-32.8,5.9-8.1,12.2-15.9,19-23.2,60.8-16.6,120.6-36.3,179.3-59.3,30.8-12.2,55.9-23.2,78.7-34.8,24.9-12.9,43.9-22.8,62.6-39.8h0c-.2.3,2-1.8,2.9-2.9v.2ZM131.4,395.9c46.7-31.4,134.6-67.7,188.2-68.7,0,0,15.1-.7,9.6,12.7-21.7,41.7-150.9,51.8-197.9,55.9h0ZM467.9,28.8c.8,0,3.9-.5,6.4-.8,50.8-2.7-33.4,44.9-47.1,51.4-65.2,33.6-147.8,63.9-221,86.6,45.6-37.5,103.7-69.1,155.8-96.4,34.9-17.2,69.3-34.1,105.9-41v.2Z"/>
      <path class="st0" d="M496,65.2c5.9-6.4,17.6-21.8,8.3-35.8-6.3-9.5-15.6-12.8-24.3-13.9h0c-7-.9-14-.7-20.9.5h0c-26.2,5-47.4,13.8-74.2,26.1-38.8,18.6-76.5,39.4-112.9,62.4-38.2,23.9-77,48.8-108.1,82.1-43.6,12.2-84.8,22.5-127.9,28.3,10.8-12.1-9.2-25.1-15.9-10.5l-4.2,12.5c-2.1,5.5.7,11.5,6.3,13.6.7.3,1.5.5,2.3.6.7,0,1.4.2,2.1.2,39.3-3.5,78-12,117.6-21.7-22.2,27.2-37.6,69.5,10.5,75.4,34.1,2.7,65.5-6.6,97.7-14.7,44.1-11.5,83.9-21.4,123.5-28.8,16.5-3,43.6-6.7,57.5-6.1,12.9.6,29.6,2.9,35.4,12.3,9.1,14.6-.7,34.7-11.4,48.2-32.6,38.8-83.7,73.6-129.3,96.1-35.9,17-79.2,30.7-118.8,39.6-20.2,4.8-40.7,7.9-61.4,9.6-15.1.8-30.7,1.6-43.1-4.1-5.9-3.4-2.3-9.9-.7-12.3l.7-1h0c50.1-4.9,108.2-13.5,150.3-25.8,24.9-7.6,40-13.2,59.8-26.1,12.5-7.6,34-28.3,17.5-43.1-23.2-15.9-82.6,2.1-110.5,9.8-27.8,8.2-54.8,18.8-80.8,31.7-19.5,10.1-38.1,20.8-52.2,36.5-11.8.5-64.7,7.3-79.1,29.3h0c-2.4,3-3.7,6.8-3.7,10.5h0c0,14.2,18.8,21.9,28.8,11.8h0l7.7-8.1c10.2-9.2,22.2-16.2,35.4-20.4-.9,72.7,181.6,12.5,218.7-3.2,42.3-16.6,76.8-37.4,112.8-64.5,28.6-22.2,55.5-44.9,72.8-74h0c14.4-24.5,11.6-51.7-12.4-68.3h0c-34.6-22.1-102.2-2.3-140.9,6.6-47.1,11.7-80.7,24.6-122.7,35-14.9,3.3-62,14-66.6-3.9-.5-12.1,6.5-21.7,13.6-32.8,5.9-8.1,12.2-15.9,19-23.2,60.8-16.5,120.6-36.3,179.3-59.3,30.8-12.1,55.8-23.1,78.8-34.5,24.9-12.9,43.9-22.9,62.6-39.8h0c-.2.2,2-2,3-3.1v.2ZM79.1,424c-.2.6-.3,1-.4,1.6-20.6,6.7-32.7,16-38.6,21.7h0l-8.1,8.5h0c-7.7,7.2-21.8,1.3-21.8-9.4,0-2.3.5-4.5,1.7-6.4,2.8-4.2,6.4-7.8,10.5-10.7,2-1.3,4.1-2.6,6.2-3.7,7.2-4.6,35-11.7,37.2-11.9,6.6-1.4,13.3-2.2,20-2.7-3,3.9-5.2,8.2-6.6,12.9ZM164.1,205.8c-78.9,91.7,26.8,66.9,83.9,48.6,33.3-10.4,85.5-26.1,124.1-33.4,31.7-6,79.4-14.1,101.2,6.7,33.3,31.7,1.5,73-32.8,104.2-42.4,38.1-90.9,70.4-145,91.5-33.5,14.7-217.6,74.4-213.3,5.5,0-1.3.3-2.5.6-3.8,13.7-39.6,101-70.4,140.3-82.7,26.8-7.4,84.5-24.7,106.9-10.5,13.7,12.7-7.2,30.4-17.3,36.7-19.4,12.7-34.4,18.1-58.7,25.5-40.3,11.9-97.2,20.5-145.6,25.2,3.3-3.4,6.9-6.6,10.5-9.4h0c48.1-4,193.9-13.9,209.2-63.3,2.8-12.9-12.2-14-22.6-13.4h0c-54.4,4.4-157.3,43.9-199.2,82.6h0c-6.5,5.8-17,19.7-.7,26.1h0c19,6.3,42.3,3.5,62.8,1,27.7-4.1,55.2-10.1,82-18.1,42.7-12.7,77.8-26.1,115.8-49.5,34.4-21.1,69.9-47.8,94.3-77.6h0c1.6-2,3.1-4.1,4.4-6.3,6.2-9.6,15.7-28.7,7.1-44.4-10.5-19.6-56.1-15-56.1-15-54.1,5.3-107.4,19.8-164.9,34.5-31.7,7.9-62.8,17.2-96.3,14.6-47.6-5.6-25.3-48.9-4.9-73.1,5.1-1.3,10.1-2.7,15.3-4l-1.3,2h0ZM125.1,405.6c46.7-31.4,134.6-67.7,188.2-68.7,0,0,15.1-.7,9.6,12.7-21.7,41.9-150.9,51.9-197.9,55.9h0ZM484.6,70.4c-17,13.5-33.6,22.6-55.8,34.1-46.5,23.2-104.9,45.8-158.9,63.8-80.1,26.1-161.5,50.4-243.5,59h-1.3c-3.6-.7-6.3-3.9-6.3-7.5,1.3-4.7,3-9.2,4.8-13.7,1-3.1,4.3-4.8,7.3-3.8s4.8,4.3,3.8,7.3c-.2.6-.5,1.2-.9,1.8l-4.8,6.1c-2.3,2.9,1.3,2.1,2.7,2,54.3-6.9,105.6-20.8,161-37.1h0c50.3-15.3,105.2-34.6,153-54.3,30.2-12.5,54.6-23.7,76.9-35.2,24.3-13.2,43.2-22.9,60.8-40.7,14-15.5-4.5-20.5-23.2-17.2h0c-36.7,7.2-71.1,24.1-106.3,41.3-35.2,17.2-77,41.7-110.3,63.2-18.7,11.5-36.2,24.7-52.6,39.2-6.5,2-13.2,4-19.6,5.8,29.9-30.7,66.6-54,102.7-76.7,36.1-22.9,73.7-43.7,112.3-62.2,28.3-12.7,50.8-22.6,78.8-26.4,4.4-.3,8.3-.3,8.9-.3,8.6.3,21.1,2.7,26.7,12.1,9,15.2-6.6,29.9-11,34.8-1.6,1.5-3.4,3.1-5.4,4.7ZM461.6,38.6c.8,0,3.9-.5,6.4-.8,50.8-2.7-33.4,45.1-47.1,51.4-65.2,33.6-147.8,63.9-221,86.6,45.6-37.4,103.7-69,155.8-96.2,35-17.2,69.3-34.1,105.9-41h0Z"/>
    </g>
  </g>
</svg>