<?xml version="1.0" encoding="UTF-8"?>
<svg id="Layer_1" xmlns="http://www.w3.org/2000/svg" version="1.1" viewBox="0 0 507.8 455.6">
  <!-- Generator: Adobe Illustrator 30.5.1, SVG Export Plug-In . SVG Version: 2.1.4 Build 3)  -->
  <defs>
    <style>
      .st0 {
        fill: #fff;
      }
    </style>
  </defs>
  <path class="st0" d="M495.9,51c5.9-6.4,17.8-22.1,8.5-36.3-6.4-9.6-15.8-13-24.6-14.1h0c-7.1-.9-14.2-.7-21.2.5h0c-26.5,4.9-47.9,14-75.2,26.4-39.3,18.8-77.4,39.9-114.2,63.2-38.8,24.3-78.2,49.6-109.6,83.2-44.2,12.3-85.9,22.8-129.4,28.6,10.9-12.2-9.4-25.5-16-10.7l-4.2,12.6c-2.1,5.5.8,11.7,6.3,13.7.7.3,1.5.5,2.2.6s1.4.2,2.1.2c39.8-3.5,79.1-12.2,119.1-22-22.5,27.5-38.1,70.4,10.7,76.3,34.5,2.7,66.4-6.6,98.9-14.9,44.6-11.8,84.8-21.8,125-29.2,16.7-3,44.1-6.8,58.2-6.1,13,.6,29.9,2.9,35.9,12.4,9.3,14.8-.7,35.1-11.6,48.7-33,39.4-84.7,74.5-130.9,97.4-36.4,17.2-80.2,31-120.3,40.1-20.4,4.8-41.1,8.1-62,9.8-15.2.8-31,1.6-43.6-4.1-5.9-3.4-2.3-10-.7-12.5.2-.3.4-.7.7-1h0c50.8-4.9,109.6-13.6,152.2-26.1,25.2-7.7,40.5-13.4,60.5-26.4,12.6-7.7,34.4-28.7,17.7-43.6-23.5-16-83.6,2.1-111.9,9.9-28.2,8.3-55.5,19-81.8,32.1-19.8,10.3-38.6,21-52.9,37-11.9.5-65.6,7.5-80.1,29.6h0c-2.4,3-3.7,6.8-3.7,10.7h0c0,14.3,19,22.2,29.1,12h0l7.8-8.3c10.3-9.4,22.6-16.4,35.9-20.6-.9,73.6,183.9,12.6,221.5-3.2,42.8-16.8,77.8-37.9,114.2-65.3,28.9-22.5,56.2-45.5,73.7-74.9h0c14.6-24.8,11.7-52.4-12.5-69.2h0c-35-22.4-103.4-2.3-142.7,6.7-47.7,11.9-81.7,24.9-124.3,35.6-15,3.3-62.7,14.1-67.4-3.9-.5-12.3,6.5-22.1,13.7-33.2,5.9-8.2,12.4-16.1,19.3-23.5,61.6-16.8,122.2-36.8,181.6-60.1,31.2-12.4,56.6-23.5,79.8-35.2,25.2-13.1,44.4-23.2,63.3-40.3h0c0,.3,2.2-1.8,3.1-2.9l-.2.3ZM120.4,395.7c47.3-31.8,136.4-68.6,190.6-69.5,0,0,15.2-.6,9.7,12.9-22,42.4-152.8,52.5-200.3,56.6h0ZM461.1,24c.8,0,3.9-.5,6.5-.8,51.5-2.7-33.8,45.6-47.6,52.1-66,34-149.7,64.7-223.8,87.7,46.3-37.8,105.1-69.8,157.8-97.4,35.6-17.4,70.3-34.5,107.2-41.6h0Z"/>
</svg>