<?xml version="1.0" encoding="UTF-8"?>
<svg id="Layer_1" xmlns="http://www.w3.org/2000/svg" version="1.1" viewBox="0 0 501.8 450.1">
  <!-- Generator: Adobe Illustrator 30.5.1, SVG Export Plug-In . SVG Version: 2.1.4 Build 3)  -->
  <defs>
    <style>
      .st0 {
        fill: #006496;
      }
    </style>
  </defs>
  <path class="st0" d="M490,50.3c5.9-6.4,17.6-21.8,8.3-35.8-6.3-9.5-15.6-12.8-24.3-13.9h0c-7-.9-14-.7-20.9.5h0c-26.1,4.9-47.3,13.8-74.2,26-38.8,18.6-76.5,39.4-113,62.4-38.2,24.1-77,48.9-108,82.2-43.6,12.2-84.7,22.5-127.9,28.3,10.8-12.1-9.2-25.2-15.9-10.5l-4.2,12.5c-2.1,5.5.7,11.5,6.3,13.6.7.3,1.5.5,2.3.6.7,0,1.4.2,2.1.2,39.3-3.5,78-12.1,117.6-21.7-22.2,27.2-37.6,69.5,10.5,75.4,34.1,2.7,65.5-6.6,97.7-14.7,44-11.7,83.8-21.4,123.4-28.8,16.5-3,43.6-6.7,57.5-6.1,12.9.6,29.6,2.9,35.4,12.3,9.1,14.6-.7,34.7-11.4,48.2-32.6,38.8-83.7,73.6-129.3,96.1-35.9,17-79.2,30.7-118.8,39.6-20.2,4.8-40.7,7.9-61.4,9.6-15.1.8-30.7,1.6-43.1-4.1-5.9-3.4-2.3-9.9-.7-12.3l.7-1h0c50.1-4.9,108.2-13.5,150.3-25.8,24.9-7.5,40-13.1,59.8-26.1,12.5-7.5,34-28.3,17.5-43.1-23.2-15.9-82.6,2.1-110.5,9.8-27.8,8.2-54.8,18.8-80.8,31.7-19.5,10.1-38.1,20.8-52.2,36.5-11.8.5-64.7,7.3-79.1,29.3h0c-2.4,3-3.7,6.8-3.7,10.5h0c0,14.2,18.8,21.9,28.8,11.8h0l7.7-8.1c10.2-9.2,22.2-16.2,35.4-20.4-.9,72.7,181.6,12.5,218.7-3.2,42.3-16.6,76.8-37.4,112.8-64.5,28.6-22.2,55.5-44.9,72.8-74h0c14.4-24.5,11.6-51.7-12.3-68.3h0c-34.6-22.1-102.2-2.2-140.9,6.6-47.1,11.8-80.7,24.6-122.7,35.1-14.7,3.4-61.9,14-66.4-3.9-.5-12.2,6.5-21.7,13.6-32.8,5.9-8.1,12.2-15.9,19-23.2,60.8-16.6,120.6-36.3,179.3-59.3,30.8-12.2,55.9-23.2,78.7-34.8,24.9-12.9,43.9-22.8,62.6-39.8h0c-.2.3,2-1.8,2.9-2.9v.2h0ZM119.2,390.9c46.7-31.4,134.6-67.7,188.2-68.7,0,0,15.1-.7,9.6,12.7-21.7,41.7-150.9,51.8-197.9,55.9h.1ZM455.7,23.8c.8,0,3.9-.5,6.4-.8,50.8-2.7-33.4,44.9-47.1,51.4-65.2,33.6-147.8,63.9-221,86.6,45.6-37.5,103.7-69.1,155.8-96.4,34.9-17.2,69.3-34.1,105.9-41v.2Z"/>
</svg>