<?xml version="1.0" encoding="UTF-8"?>
<svg id="Layer_1" xmlns="http://www.w3.org/2000/svg" version="1.1" viewBox="0 0 470 520">
  <!-- Generator: Adobe Illustrator 29.8.4, SVG Export Plug-In . SVG Version: 2.1.1 Build 6)  -->
  <defs>
    <style>
      .st0 {
        fill: #006496;
      }

      .st1 {
        fill: #ffaa64;
      }
    </style>
  </defs>
  <g id="Capa_2">
    <g id="Capa_1-2">
      <path class="st1" d="M439.6,48.6c4.9-5.4,14.9-18.5,7.1-30.4-5.3-8.1-13.2-10.9-20.6-11.8h0c-5.9-.7-11.9-.6-17.8.4h0c-22.1,4.1-40,11.7-62.9,22.1-32.9,15.7-64.9,33.4-95.7,52.9-32.4,20.4-65.3,41.5-91.6,69.6-37,10.4-71.8,19.1-108.3,24,9.1-10.2-7.9-21.3-13.4-9l-3.5,10.6c-1.7,4.6.6,9.8,5.3,11.5.6.2,1.3.4,1.9.5.6,0,1.2.1,1.7.1,33.3-2.9,66.2-10.2,99.7-18.4-18.8,23-31.9,58.9,9,63.9,28.9,2.2,55.6-5.6,82.8-12.4,37.3-9.9,71-18.2,104.6-24.4,14-2.5,36.9-5.7,48.7-5.1,10.9.5,25,2.4,30.1,10.4,7.7,12.4-.6,29.4-9.7,40.8-27.6,32.9-70.9,62.3-109.5,81.5-30.5,14.4-67.1,26-100.7,33.6-17.1,4-34.5,6.7-52,8.2-12.8.7-26,1.3-36.5-3.4-4.9-2.8-1.9-8.4-.6-10.5l.6-.8h0c42.5-4.1,91.8-11.4,127.4-21.9,21.1-6.4,33.9-11.1,50.7-22.1,10.6-6.4,28.8-24,14.8-36.5-19.7-13.4-70,1.8-93.7,8.3-23.6,7-46.5,15.9-68.5,26.9-16.5,8.6-32.3,17.6-44.3,30.9-10,.4-54.9,6.2-67,24.8h0c-2,2.6-3.1,5.7-3.1,9h0c0,12,15.9,18.6,24.4,10h0l6.5-6.9c8.6-7.8,18.9-13.7,30-17.2-.7,61.6,153.9,10.6,185.4-2.7,35.8-14,65.2-31.7,95.6-54.7,24.2-18.8,47-38,61.7-62.7h0c12.2-20.7,9.8-43.9-10.5-57.9h0c-29.2-18.8-86.6-1.9-119.4,5.6-39.9,10-68.4,20.9-104,29.8-12.5,2.8-52.4,11.9-56.3-3.2-.4-10.3,5.4-18.5,11.5-27.7,5-6.9,10.4-13.5,16.1-19.7,51.5-14,102.3-30.8,152-50.3,26.1-10.3,47.3-19.7,66.8-29.4,21.1-10.9,37.2-19.4,53-33.7h0c-.2.3,1.7-1.5,2.5-2.4ZM125.4,337.2c39.6-26.6,114.1-57.4,159.5-58.2,0,0,12.8-.6,8.2,10.8-18.4,35.4-127.9,43.9-167.7,47.4ZM410.5,26.1c.6,0,3.3-.4,5.4-.6,43.1-2.2-28.3,38-39.9,43.6-55.3,28.4-125.3,54.2-187.3,73.4,38.6-31.8,87.8-58.5,132-81.7,29.6-14.6,58.7-28.8,89.7-34.7Z"/>
      <path class="st0" d="M42.6,470.9c-4.8-1.4-9.1-3.9-12.7-7.3-3-3-4.7-7.1-4.7-11.3,0-4.2,1.6-8.3,4.7-11.2,3-3.1,7.1-4.8,11.3-4.7,4.3,0,8.3,1.6,11.3,4.7,1.6,1.5,2.9,3.5,3.6,5.6l-3.8,1.5c-.6-1.6-1.5-3-2.8-4.2-2.2-2.2-5.2-3.5-8.3-3.4-3.1,0-6.1,1.2-8.3,3.4-2.3,2.2-3.5,5.2-3.4,8.3,0,3.1,1.2,6.1,3.4,8.3,2.6,2.4,5.6,4.4,8.8,5.8,5.7,1.8,11,4.9,15.2,9.1,8.7,8.7,8.7,22.8,0,31.6-4.1,4.2-9.8,6.6-15.7,6.6-5.9,0-11.6-2.3-15.7-6.6-3.5-3.2-5.8-7.5-6.5-12.2l4-1.5c.4,4.1,2.3,7.8,5.2,10.7,3.4,3.5,8,5.4,12.8,5.3,4.8,0,9.5-1.9,12.8-5.3,7.1-7.1,7.1-18.5,0-25.6,0,0,0,0,0,0-3.3-3.2-7.2-5.8-11.5-7.5Z"/>
      <path class="st0" d="M121.5,512.7h-4.3v-9.4c-.8,1.1-1.7,2.1-2.7,3.1-4.8,5-11.4,7.7-18.4,7.6-14.3,0-25.9-11.6-25.9-25.9,0-14.3,11.6-25.9,25.9-25.9,6.9,0,13.4,2.7,18.3,7.6.9,1,1.8,2.1,2.7,3.2v-6.6h4.3v46.3ZM117.3,492.3v-8.4c-2-10-10.8-17.2-21-17.2-11.8,0-21.4,9.6-21.3,21.4,0,11.8,9.6,21.4,21.4,21.3,5.7,0,11.1-2.3,15.1-6.3,3-2.9,5.1-6.7,5.9-10.9Z"/>
      <path class="st0" d="M135.8,476.7v35.9h-4.3v-46.3h4.3v3c3.5-3.7,8.3-5.8,13.4-5.8,5-.2,9.9,1.7,13.4,5.1,3.4,3.4,5.3,8.1,5.2,12.9v31h-4.3v-30.5c0-3.8-1.5-7.5-4.3-10.1-5.6-5.5-14.5-5.5-20.1,0-1.4,1.3-2.6,2.9-3.4,4.7Z"/>
      <path class="st0" d="M212.1,437.3v4.3h-28.7v31.3h28.7v4.3h-28.7v35.5h-4.3v-75.4h33Z"/>
      <path class="st0" d="M267.6,512.7h-4.3v-9.4c-.8,1.1-1.7,2.1-2.7,3.1-10.1,10.1-26.5,10.1-36.6,0-10.1-10.1-10.1-26.5,0-36.6,10.1-10.1,26.4-10.1,36.5,0,.9,1,1.8,2.1,2.7,3.2v-6.6h4.3v46.3ZM263.4,492.3v-8.4c-2.3-11.5-13.5-18.9-25-16.6-11.5,2.3-18.9,13.5-16.6,25,2.3,11.5,13.5,18.9,25,16.6,8.4-1.7,14.9-8.2,16.6-16.6Z"/>
      <path class="st0" d="M277.6,437.3h4.3v35.6c.8-1.1,1.7-2.1,2.7-3.1,10.1-10.1,26.5-10.2,36.6,0,10.1,10.1,10.2,26.5,0,36.6-10.1,10.1-26.5,10.2-36.6,0,0,0,0,0,0,0-1-1-1.9-2-2.7-3.1v9.4h-4.3v-75.4ZM281.8,483.7v9c.8,4,2.8,7.7,5.8,10.6,8.3,8.4,21.9,8.4,30.3,0,8.4-8.3,8.4-21.9,0-30.3-8.3-8.4-21.9-8.4-30.3,0,0,0,0,0,0,0-3,2.9-5,6.6-5.8,10.6Z"/>
      <path class="st0" d="M344,451.3c.8.7,1.3,1.8,1.3,2.9,0,2.3-1.9,4.2-4.2,4.3-1.1,0-2.2-.4-3-1.2-.8-.8-1.3-1.9-1.2-3,0-1.1.4-2.2,1.2-2.9.8-.8,1.9-1.2,3-1.2,1.1,0,2.2.4,3,1.2ZM343.1,466.5v46.2h-4.2v-46.3h4.2Z"/>
      <path class="st0" d="M404.5,512.7h-4.3v-9.4c-.8,1.1-1.7,2.2-2.7,3.1-10.1,10.1-26.5,10.1-36.6,0s-10.1-26.5,0-36.6c10.1-10.1,26.4-10.1,36.5,0,1,1,1.8,2,2.7,3.2v-6.6h4.3v46.3ZM400.3,492.3v-8.4c-2.3-11.5-13.5-18.9-25-16.6s-18.9,13.5-16.6,25,13.5,18.9,25,16.6c8.4-1.7,14.9-8.2,16.6-16.6Z"/>
      <path class="st0" d="M418.8,476.7v35.9h-4.3v-46.3h4.3v3c3.5-3.7,8.4-5.8,13.4-5.8,9.9-.4,18.2,7.3,18.6,17.2,0,.3,0,.6,0,.9v31h-4.2v-30.5c0-3.8-1.5-7.5-4.3-10.1-5.6-5.4-14.5-5.4-20.1,0-1.4,1.3-2.6,2.9-3.4,4.7Z"/>
      <path class="st0" d="M434.3,56.9c4.9-5.4,14.9-18.5,7.1-30.3-5.3-8.1-13.2-10.9-20.6-11.8h0c-5.9-.7-11.9-.6-17.8.4h0c-22.2,4.2-40.1,11.7-62.9,22.1-32.9,15.7-64.9,33.4-95.7,52.9-32.4,20.3-65.3,41.4-91.6,69.6-37,10.3-71.9,19.1-108.3,24,9.1-10.2-7.9-21.3-13.4-9l-3.5,10.6c-1.7,4.6.6,9.8,5.3,11.5.6.2,1.3.4,1.9.5.6.1,1.2.1,1.7.1,33.3-2.9,66.2-10.2,99.7-18.4-18.8,23-31.9,58.9,9,63.9,28.9,2.2,55.6-5.6,82.8-12.4,37.4-9.8,71.1-18.2,104.6-24.4,14-2.5,36.9-5.7,48.7-5.1,10.9.5,25,2.4,30.1,10.4,7.7,12.4-.6,29.3-9.7,40.8-27.6,32.9-70.9,62.4-109.5,81.5-30.5,14.4-67.1,26-100.7,33.6-17.1,4-34.5,6.7-52,8.2-12.8.7-26,1.3-36.5-3.4-4.9-2.8-1.9-8.4-.6-10.5l.6-.8h0c42.5-4.1,91.8-11.4,127.4-21.9,21.1-6.4,33.9-11.2,50.7-22.1,10.6-6.4,28.8-24,14.8-36.5-19.7-13.4-70,1.7-93.7,8.3-23.6,7-46.5,15.9-68.5,26.9-16.5,8.6-32.3,17.6-44.3,30.9-10,.4-54.9,6.2-67,24.8h0c-2,2.6-3.1,5.7-3.1,9h0c0,12,15.9,18.6,24.4,10h0l6.5-6.9c8.6-7.8,18.9-13.7,30-17.2-.7,61.6,153.9,10.6,185.4-2.7,35.8-14.1,65.2-31.8,95.6-54.7,24.2-18.8,47-38,61.7-62.7h0c12.2-20.7,9.8-43.9-10.5-57.9h0c-29.2-18.8-86.6-1.9-119.4,5.6-39.9,10-68.4,20.9-104,29.7-12.6,2.8-52.5,11.8-56.4-3.2-.4-10.3,5.4-18.5,11.5-27.7,5-6.9,10.4-13.5,16.1-19.7,51.5-14,102.3-30.8,152-50.3,26.1-10.2,47.3-19.6,66.8-29.2,21.1-11,37.2-19.4,53-33.7h0c-.2.2,1.7-1.7,2.5-2.6ZM81,361c-.1.5-.2.9-.3,1.4-17.4,5.7-27.7,13.5-32.7,18.4h0l-6.9,7.3h0c-6.6,6.2-18.5,1.1-18.6-8-.1-1.9.4-3.8,1.5-5.3,2.4-3.6,5.4-6.7,9-9.1,1.7-1.1,3.4-2.2,5.2-3.1,6.2-3.9,29.7-9.9,31.6-10.1,5.6-1.1,11.2-1.9,16.9-2.2-2.5,3.3-4.4,7-5.6,10.9ZM153,176.1c-66.9,77.8,22.7,56.8,71.1,41.1,28.2-8.8,72.4-22.1,105.2-28.3,26.9-5.1,67.3-12,85.7,5.7,28.2,26.9,1.3,61.9-27.8,88.3-36,32.3-77.1,59.7-122.9,77.5-28.4,12.4-184.5,63.1-180.8,4.6,0-1.1.3-2.1.5-3.2,11.6-33.6,85.6-59.6,118.9-70.1,22.7-6.3,71.6-20.9,90.7-9,11.6,10.7-6.2,25.8-14.6,31.2-16.4,10.8-29.1,15.3-49.7,21.7-34.1,10.1-82.4,17.3-123.3,21.4,2.8-2.9,5.8-5.5,9-8h0c40.7-3.4,164.3-11.8,177.3-53.7,2.4-11-10.4-11.9-19.2-11.3h0c-46.1,3.7-133.3,37.2-168.8,70h0c-5.4,4.9-14.4,16.7-.6,22.1h0c16.1,5.3,35.8,2.9,53.3.8,23.5-3.4,46.7-8.6,69.5-15.4,36.2-10.8,66-22.1,98.1-42,29.1-17.9,59.2-40.4,79.9-65.8h0c1.3-1.7,2.6-3.5,3.7-5.3,5.2-8.2,13.3-24.3,6.1-37.6-9-16.6-47.6-12.7-47.6-12.7-45.9,4.5-91.1,16.8-139.8,29.2-26.9,6.7-53.3,14.5-81.6,12.4-40.3-4.7-21.4-41.4-4.1-61.9,4.3-1.1,8.6-2.2,13-3.4l-1.1,1.7ZM120,345.5c39.6-26.6,114.1-57.4,159.5-58.2,0,0,12.8-.6,8.2,10.8-18.4,35.5-127.9,44-167.7,47.4ZM424.6,61.4c-14.4,11.5-28.4,19.2-47.3,28.8-39.3,19.7-89,38.8-134.6,54.1-67.9,22.1-136.9,42.8-206.3,50-.4,0-.7,0-1.1,0-3.1-.6-5.3-3.3-5.3-6.4,1.1-3.9,2.5-7.8,4.1-11.6.8-2.6,3.6-4,6.2-3.2s4,3.6,3.2,6.2c-.2.5-.4,1-.8,1.5l-4.1,5.1c-1.9,2.5,1.1,1.8,2.2,1.7,46-5.8,89.5-17.6,136.5-31.5h0c42.7-13,89.2-29.2,129.6-46,25.6-10.6,46.3-20.1,65.2-29.8,20.6-11.2,36.6-19.4,51.5-34.5,11.9-13.1-3.8-17.3-19.6-14.5h0c-31.1,6.1-60.3,20.4-90.1,35-29.9,14.6-65.3,35.4-93.5,53.6-15.8,9.8-30.7,20.9-44.6,33.3-5.5,1.7-11.2,3.3-16.6,4.9,25.3-26,56.5-45.8,87-65,30.7-19.4,62.4-37,95.2-52.7,23.9-10.8,43.1-19.2,66.8-22.4,3.7-.3,7.1-.2,7.6-.2,7.3.3,17.9,2.2,22.7,10.2,7.7,12.9-5.6,25.4-9.3,29.5-1.4,1.3-2.8,2.6-4.6,4ZM405.2,34.4c.6,0,3.3-.4,5.4-.7,43.1-2.2-28.3,38.2-39.9,43.6-55.3,28.4-125.3,54.2-187.3,73.4,38.6-31.7,87.9-58.5,132-81.6,29.7-14.5,58.7-28.8,89.7-34.8h0Z"/>
    </g>
  </g>
</svg>