<?xml version="1.0" encoding="UTF-8"?>
<svg id="Layer_1" xmlns="http://www.w3.org/2000/svg" version="1.1" viewBox="0 0 431.8 508.1">
  <!-- Generator: Adobe Illustrator 30.5.1, SVG Export Plug-In . SVG Version: 2.1.4 Build 3)  -->
  <defs>
    <style>
      .st0 {
        fill: #fff;
      }
    </style>
  </defs>
  <path class="st0" d="M420.5,42.6c4.9-5.4,14.9-18.5,7.1-30.3-5.3-8.1-13.2-10.9-20.6-11.8h0c-5.9-.7-11.9-.6-17.8.4h0c-22.2,4.1-40.1,11.7-62.9,22.1-32.9,15.7-64.8,33.4-95.6,52.9-32.5,20.3-65.4,41.5-91.8,69.7-37,10.3-71.9,19.1-108.3,24,9.1-10.2-7.9-21.3-13.4-9l-3.5,10.6c-1.7,4.6.7,9.8,5.3,11.5.6.2,1.2.4,1.9.5.6.1,1.1.2,1.7.2,33.3-2.9,66.2-10.2,99.7-18.4-18.9,23-31.9,58.9,9,63.9,28.9,2.2,55.6-5.5,82.8-12.4,37.3-9.9,71-18.2,104.6-24.4,14-2.5,36.9-5.7,48.7-5.1,10.9.5,25,2.4,30.1,10.4,7.8,12.4-.6,29.4-9.7,40.8-27.6,32.9-70.9,62.4-109.5,81.5-30.5,14.4-67.1,26-100.7,33.6-17.1,4-34.4,6.7-51.9,8.2-12.8.7-26,1.4-36.5-3.4-4.9-2.8-1.9-8.4-.6-10.5.2-.3.4-.5.6-.8h0c42.5-4.1,91.8-11.4,127.4-21.9,21.1-6.4,33.9-11.2,50.7-22.1,10.6-6.4,28.8-24,14.8-36.5-19.7-13.4-70,1.8-93.7,8.3-23.6,6.9-46.5,15.9-68.5,26.9-16.5,8.6-32.3,17.6-44.3,31-10,.4-54.9,6.2-67,24.8h0c-2,2.5-3.1,5.7-3.1,9h0c0,12,15.9,18.6,24.4,10h0l6.5-6.9c8.6-7.9,18.9-13.7,30-17.2-.7,61.6,153.9,10.6,185.4-2.7,35.8-14,65.1-31.8,95.6-54.7,24.2-18.8,47-38,61.7-62.7h0c12.2-20.7,9.8-43.9-10.5-57.9h0c-29.3-18.8-86.6-1.9-119.4,5.6-39.9,10-68.4,20.9-104,29.8-12.6,2.7-52.5,11.8-56.4-3.2-.4-10.3,5.4-18.5,11.5-27.8,5-6.9,10.4-13.4,16.1-19.7,51.5-14,102.3-30.8,152-50.3,26.1-10.4,47.3-19.7,66.8-29.4,21.1-10.9,37.2-19.4,53-33.7h0c0,.2,1.8-1.5,2.6-2.4l-.3-.5ZM106.2,331.1c39.6-26.6,114.1-57.4,159.5-58.2,0,0,12.7-.5,8.1,10.8-18.4,35.4-127.9,44-167.7,47.4h.1ZM391.4,20c.6,0,3.3-.4,5.4-.6,43.1-2.2-28.3,38.2-39.9,43.6-55.3,28.4-125.3,54.2-187.3,73.4,38.7-31.7,88-58.5,132-81.6,29.8-14.5,58.9-28.9,89.7-34.8h0Z"/>
  <path class="st0" d="M23.5,464.9c-4.8-1.4-9.1-3.9-12.7-7.3-6.2-6.2-6.2-16.4,0-22.6s16.4-6.2,22.6,0h0c1.6,1.5,2.9,3.5,3.6,5.6l-3.8,1.5c-.6-1.6-1.5-3-2.8-4.2-4.6-4.6-12-4.6-16.6,0-2.2,2.2-3.4,5.2-3.4,8.3s1.2,6.1,3.4,8.3c2.6,2.4,5.5,4.4,8.8,5.8,5.7,1.8,11,4.9,15.2,9.1,4.2,4.1,6.6,9.8,6.5,15.7,0,6-2.3,11.7-6.5,15.8-8.6,8.7-22.7,8.8-31.4.1h-.1c-3.4-3.3-5.6-7.6-6.3-12.3l4-1.4c.4,4.1,2.3,7.8,5.2,10.7,7.1,7.1,18.6,7.1,25.7,0h0c7.1-7,7.1-18.4,0-25.5h0c-3.3-3.3-7.1-5.8-11.4-7.6h0Z"/>
  <path class="st0" d="M102.4,506.7h-4.3v-9.4c-.8,1.1-1.7,2.2-2.7,3.2-10.1,10.1-26.5,10.1-36.6,0s-10.1-26.5,0-36.6,26.4-10.1,36.5,0c1,1,1.8,2,2.7,3.2v-6.6h4.3v46.3h0ZM98.2,486.3v-8.4c-2.3-11.6-13.6-19.1-25.2-16.8-4.1.8-8,2.9-10.9,5.9-4.1,4-6.3,9.4-6.3,15.1,0,11.8,9.6,21.4,21.4,21.3,5.7,0,11.1-2.3,15.1-6.3,3-2.9,5.1-6.7,5.9-10.9h0Z"/>
  <path class="st0" d="M116.7,470.7v35.8h-4.3v-46.1h4.3v3.1c3.5-3.7,8.3-5.8,13.4-5.8,9.8-.5,18.1,7.1,18.6,16.9v32.1h-4.2v-30.7c0-3.8-1.5-7.5-4.3-10.1-5.6-5.5-14.5-5.5-20.1,0-1.4,1.3-2.6,2.9-3.4,4.7h0Z"/>
  <path class="st0" d="M193,431.3v4.3h-28.7v31.3h28.7v4.3h-28.7v35.6h-4.3v-75.4h33Z"/>
  <path class="st0" d="M248.4,506.7h-4.3v-9.4c-.8,1.1-1.7,2.2-2.7,3.2-10.1,10.1-26.5,10.1-36.6,0s-10.1-26.5,0-36.6,26.4-10.1,36.5,0,1.9,2,2.7,3.2v-6.6h4.3v46.3h.1ZM244.2,486.3v-8.4c-2.3-11.6-13.6-19.1-25.2-16.8-4.1.8-8,2.9-10.9,5.9-4.1,4-6.3,9.4-6.3,15.1.2,11.8,9.9,21.3,21.7,21.1,10-.1,18.6-7.2,20.7-17h0Z"/>
  <path class="st0" d="M258.4,431.3h4.3v35.6c.8-1.1,1.7-2.1,2.7-3.1,10.1-10.1,26.5-10.2,36.7,0s10.2,26.5,0,36.7c-10.1,10.1-26.5,10.2-36.7,0h0c-1-1-1.9-2-2.7-3.1v9.4h-4.3v-75.4h0ZM262.7,477.7v8.8c.8,4.1,2.8,7.8,5.8,10.6,8.3,8.4,21.9,8.4,30.2,0,8.4-8.3,8.4-21.9,0-30.2s-21.9-8.4-30.2,0h0c-3,2.9-5,6.6-5.8,10.7h0Z"/>
  <path class="st0" d="M324.9,445.2c.8.8,1.2,1.8,1.2,2.9s-.4,2.2-1.2,3c-1.7,1.6-4.3,1.6-6,0-.8-.8-1.3-1.9-1.3-3s.4-2.2,1.3-2.9c1.7-1.6,4.3-1.6,6,0ZM324,460.4v46.3h-4.2v-46.3h4.2Z"/>
  <path class="st0" d="M385.4,506.7h-4.3v-9.4c-.8,1.1-1.7,2.2-2.7,3.2-10.1,10.1-26.5,10.1-36.6,0s-10.1-26.5,0-36.6,26.4-10.1,36.5,0,1.9,2,2.7,3.2v-6.6h4.3v46.3h.1ZM381.2,486.3v-8.4c-2.3-11.6-13.5-19.1-25.1-16.9-10.1,2-17.3,10.8-17.3,21.1s9.6,21.3,21.4,21.3h0c10.2,0,19-7.2,21-17.2h0Z"/>
  <path class="st0" d="M399.7,470.7v35.8h-4.3v-46.1h4.3v3.1c3.5-3.7,8.3-5.8,13.4-5.8,5-.2,9.9,1.6,13.4,5.1s5.3,8.1,5.3,12.9v31h-4.2v-30.7c0-3.8-1.5-7.5-4.3-10.1-5.6-5.5-14.5-5.5-20.1,0-1.5,1.3-2.7,2.9-3.5,4.7h0Z"/>
</svg>