<?xml version="1.0" encoding="UTF-8"?>
<svg id="Layer_1" xmlns="http://www.w3.org/2000/svg" version="1.1" viewBox="0 0 431.8 508.1">
  <!-- Generator: Adobe Illustrator 30.5.1, SVG Export Plug-In . SVG Version: 2.1.4 Build 3)  -->
  <defs>
    <style>
      .st0 {
        fill: #006496;
      }
    </style>
  </defs>
  <g id="Capa_2">
    <g id="Capa_1-2">
      <path class="st0" d="M420.6,42.7c4.9-5.4,14.9-18.5,7.1-30.4-5.3-8.1-13.2-10.9-20.6-11.8h0c-5.9-.7-11.9-.6-17.8.4h0c-22.1,4.1-40,11.7-62.9,22.1-32.9,15.7-64.9,33.4-95.7,52.9-32.4,20.4-65.3,41.5-91.6,69.6-37,10.4-71.8,19.1-108.3,24,9.1-10.2-7.9-21.3-13.4-9l-3.5,10.6c-1.7,4.6.6,9.8,5.3,11.5.6.2,1.3.4,1.9.5.6,0,1.2.1,1.7.1,33.3-2.9,66.2-10.2,99.7-18.4-18.8,23-31.9,58.9,9,63.9,28.9,2.2,55.6-5.6,82.8-12.4,37.3-9.9,71-18.2,104.6-24.4,14-2.5,36.9-5.7,48.7-5.1,10.9.5,25,2.4,30.1,10.4,7.7,12.4-.6,29.4-9.7,40.8-27.6,32.9-70.9,62.3-109.5,81.5-30.5,14.4-67.1,26-100.7,33.6-17.1,4-34.5,6.7-52,8.2-12.8.7-26,1.3-36.5-3.4-4.9-2.8-1.9-8.4-.6-10.5l.6-.8h0c42.5-4.1,91.8-11.4,127.4-21.9,21.1-6.4,33.9-11.1,50.7-22.1,10.6-6.4,28.8-24,14.8-36.5-19.7-13.4-70,1.8-93.7,8.3-23.6,7-46.5,15.9-68.5,26.9-16.5,8.6-32.3,17.6-44.3,30.9-10,.4-54.9,6.2-67,24.8h0c-2,2.6-3.1,5.7-3.1,9h0c0,12,15.9,18.6,24.4,10h0l6.5-6.9c8.6-7.8,18.9-13.7,30-17.2-.7,61.6,153.9,10.6,185.4-2.7,35.8-14,65.2-31.7,95.6-54.7,24.2-18.8,47-38,61.7-62.7h0c12.2-20.7,9.8-43.9-10.5-57.9h0c-29.2-18.8-86.6-1.9-119.4,5.6-39.9,10-68.4,20.9-104,29.8-12.5,2.8-52.4,11.9-56.3-3.2-.4-10.3,5.4-18.5,11.5-27.7,5-6.9,10.4-13.5,16.1-19.7,51.5-14,102.3-30.8,152-50.3,26.1-10.3,47.3-19.7,66.8-29.4,21.1-10.9,37.2-19.4,53-33.7h0c-.2.3,1.7-1.5,2.5-2.4l-.3-.2ZM106.4,331.3c39.6-26.6,114.1-57.4,159.5-58.2,0,0,12.8-.6,8.2,10.8-18.4,35.4-127.9,43.9-167.7,47.4h0ZM391.5,20.2c.6,0,3.3-.4,5.4-.6,43.1-2.2-28.3,38-39.9,43.6-55.3,28.4-125.3,54.2-187.3,73.4,38.6-31.8,87.8-58.5,132-81.7,29.6-14.6,58.7-28.8,89.7-34.7h0Z"/>
      <path class="st0" d="M23.6,465c-4.8-1.4-9.1-3.9-12.7-7.3-3-3-4.7-7.1-4.7-11.3s1.6-8.3,4.7-11.2c3-3.1,7.1-4.8,11.3-4.7,4.3,0,8.3,1.6,11.3,4.7,1.6,1.5,2.9,3.5,3.6,5.6l-3.8,1.5c-.6-1.6-1.5-3-2.8-4.2-2.2-2.2-5.2-3.5-8.3-3.4-3.1,0-6.1,1.2-8.3,3.4-2.3,2.2-3.5,5.2-3.4,8.3,0,3.1,1.2,6.1,3.4,8.3,2.6,2.4,5.6,4.4,8.8,5.8,5.7,1.8,11,4.9,15.2,9.1,8.7,8.7,8.7,22.8,0,31.6-4.1,4.2-9.8,6.6-15.7,6.6s-11.6-2.3-15.7-6.6c-3.5-3.2-5.8-7.5-6.5-12.2l4-1.5c.4,4.1,2.3,7.8,5.2,10.7,3.4,3.5,8,5.4,12.8,5.3,4.8,0,9.5-1.9,12.8-5.3,7.1-7.1,7.1-18.5,0-25.6h0c-3.3-3.2-7.2-5.8-11.5-7.5h.3Z"/>
      <path class="st0" d="M102.5,506.8h-4.3v-9.4c-.8,1.1-1.7,2.1-2.7,3.1-4.8,5-11.4,7.7-18.4,7.6-14.3,0-25.9-11.6-25.9-25.9s11.6-25.9,25.9-25.9,13.4,2.7,18.3,7.6c.9,1,1.8,2.1,2.7,3.2v-6.6h4.3v46.3h.1ZM98.3,486.4v-8.4c-2-10-10.8-17.2-21-17.2s-21.4,9.6-21.3,21.4c0,11.8,9.6,21.4,21.4,21.3,5.7,0,11.1-2.3,15.1-6.3,3-2.9,5.1-6.7,5.9-10.9h0Z"/>
      <path class="st0" d="M116.8,470.8v35.9h-4.3v-46.3h4.3v3c3.5-3.7,8.3-5.8,13.4-5.8,5-.2,9.9,1.7,13.4,5.1,3.4,3.4,5.3,8.1,5.2,12.9v31h-4.3v-30.5c0-3.8-1.5-7.5-4.3-10.1-5.6-5.5-14.5-5.5-20.1,0-1.4,1.3-2.6,2.9-3.4,4.7h.1Z"/>
      <path class="st0" d="M193.1,431.4v4.3h-28.7v31.3h28.7v4.3h-28.7v35.5h-4.3v-75.4h33Z"/>
      <path class="st0" d="M248.6,506.8h-4.3v-9.4c-.8,1.1-1.7,2.1-2.7,3.1-10.1,10.1-26.5,10.1-36.6,0-10.1-10.1-10.1-26.5,0-36.6s26.4-10.1,36.5,0c.9,1,1.8,2.1,2.7,3.2v-6.6h4.3v46.3h.1ZM244.4,486.4v-8.4c-2.3-11.5-13.5-18.9-25-16.6s-18.9,13.5-16.6,25c2.3,11.5,13.5,18.9,25,16.6,8.4-1.7,14.9-8.2,16.6-16.6Z"/>
      <path class="st0" d="M258.6,431.4h4.3v35.6c.8-1.1,1.7-2.1,2.7-3.1,10.1-10.1,26.5-10.2,36.6,0,10.1,10.1,10.2,26.5,0,36.6-10.1,10.1-26.5,10.2-36.6,0h0c-1-1-1.9-2-2.7-3.1v9.4h-4.3v-75.4h0ZM262.8,477.8v9c.8,4,2.8,7.7,5.8,10.6,8.3,8.4,21.9,8.4,30.3,0,8.4-8.3,8.4-21.9,0-30.3-8.3-8.4-21.9-8.4-30.3,0h0c-3,2.9-5,6.6-5.8,10.6h0Z"/>
      <path class="st0" d="M325,445.4c.8.7,1.3,1.8,1.3,2.9,0,2.3-1.9,4.2-4.2,4.3-1.1,0-2.2-.4-3-1.2-.8-.8-1.3-1.9-1.2-3,0-1.1.4-2.2,1.2-2.9.8-.8,1.9-1.2,3-1.2s2.2.4,3,1.2h0ZM324.1,460.6v46.2h-4.2v-46.3h4.2Z"/>
      <path class="st0" d="M385.5,506.8h-4.3v-9.4c-.8,1.1-1.7,2.2-2.7,3.1-10.1,10.1-26.5,10.1-36.6,0s-10.1-26.5,0-36.6,26.4-10.1,36.5,0,1.8,2,2.7,3.2v-6.6h4.3v46.3h.1ZM381.3,486.4v-8.4c-2.3-11.5-13.5-18.9-25-16.6s-18.9,13.5-16.6,25,13.5,18.9,25,16.6c8.4-1.7,14.9-8.2,16.6-16.6Z"/>
      <path class="st0" d="M399.8,470.8v35.9h-4.3v-46.3h4.3v3c3.5-3.7,8.4-5.8,13.4-5.8,9.9-.4,18.2,7.3,18.6,17.2v31.9h-4.2v-30.5c0-3.8-1.5-7.5-4.3-10.1-5.6-5.4-14.5-5.4-20.1,0-1.4,1.3-2.6,2.9-3.4,4.7h0Z"/>
    </g>
  </g>
</svg>